<svg id="Layer_1" xmlns="http://www.w3.org/2000/svg" viewBox="0 0 392 60"><style>.st0{fill:#121617;} .st1{fill:#ED3029;} .st2{fill:#EC1E27;}</style><path className="st0" d="M81.6 42.9l-8.7-26.8h5.8l4.5 15 9.9-15h6.5l-18 26.8zM111.6 26.4c1.4 1.7 2 3.9 1.5 6.7l-.3 1.8h-12.5c-.2 2.4 1 3.7 3.3 3.7 1.8 0 3-.7 3.6-2l5.2.4c-.6 1.8-1.7 3.2-3.3 4.3-1.6 1-3.4 1.5-5.5 1.5-2.9 0-5.1-.9-6.7-2.6-1.5-1.8-2.1-4.2-1.7-7.2.4-2.8 1.5-5 3.3-6.7 1.9-1.7 4.1-2.5 6.8-2.5s4.8.9 6.3 2.6zm-10.8 5.1h7.3c.3-2.4-.8-3.7-2.9-3.7-2.3.1-3.9 1.4-4.4 3.7zM120 42.4h-5.1l4.8-27.4h5.1L120 42.4zM130.2 42.4h-5.1l3.2-18.2h5.1l-3.2 18.2zm4.8-23.8c-.3 1.5-1.7 2.7-3.2 2.7-1.9 0-3.2-1.5-2.9-3.4.3-1.5 1.8-2.8 3.2-2.8 1.9 0 3.2 1.6 2.9 3.5zM151.4 26.3l.5-2.1h4.8l-3.3 19c-.5 2.6-1.6 4.7-3.5 6.2s-4.2 2.3-6.9 2.3c-5.6 0-8.4-2.7-8.3-6.9l5-.1c0 1.7 1.2 2.6 3.4 2.6 2.8 0 4.8-1.5 5.2-4.1l.4-2.2c-.9 1.2-2.5 1.7-4.8 1.7-2.7 0-4.8-.9-6.2-2.7-1.4-1.8-1.9-4.2-1.5-7.1.4-2.8 1.4-5 3.2-6.6 1.7-1.7 3.9-2.5 6.5-2.5s4.6 1.1 5.5 2.5zm-6.4 12c2.6 0 4.4-1.7 4.9-4.5l.1-.8c.4-3-1.1-4.8-3.8-4.8-2.6 0-4.6 1.8-5 4.9-.4 3.2 1.3 5.2 3.8 5.2zM174.7 26.3l.5-2.1h4.8l-3.1 18.2h-4.8l.2-1.7c-1.2 1.4-2.9 2-5.1 2-2.7 0-4.8-.9-6.2-2.7-1.4-1.8-1.9-4.2-1.5-7.1.4-2.8 1.4-5 3.2-6.6 1.7-1.7 3.9-2.5 6.5-2.5 2.7 0 4.6 1.1 5.5 2.5zm-10.1 6.8c-.5 3.2 1.2 5.2 3.7 5.2 2.7 0 4.5-1.7 4.9-4.5l.1-.8c.4-3-1.1-4.8-3.8-4.8-2.5 0-4.5 1.8-4.9 4.9zM197.8 26.3l.5-2.1h4.8L200 42.4h-4.8l.2-1.7c-1.2 1.4-2.9 2-5.1 2-2.7 0-4.8-.9-6.2-2.7-1.4-1.8-1.9-4.2-1.5-7.1.4-2.8 1.4-5 3.2-6.6 1.7-1.7 3.9-2.5 6.5-2.5 2.7 0 4.7 1.1 5.5 2.5zm-10 6.8c-.5 3.2 1.2 5.2 3.7 5.2 2.7 0 4.5-1.7 4.9-4.5l.1-.8c.4-3-1.1-4.8-3.8-4.8-2.6 0-4.5 1.8-4.9 4.9zM234 42.4h-5.4l2-11.1h-10.7L218 42.4h-5.5l4.6-26.3h5.5l-1.9 10.4h10.7l1.8-10.4h5.4L234 42.4zM255.7 26.3l.5-2.1h4.8l-3.1 18.2h-4.8l.2-1.7c-1.2 1.4-2.9 2-5.1 2-2.7 0-4.8-.9-6.2-2.7-1.4-1.8-1.9-4.2-1.5-7.1.4-2.8 1.4-5 3.2-6.6 1.7-1.7 3.9-2.5 6.5-2.5 2.7 0 4.7 1.1 5.5 2.5zm-10 6.8c-.5 3.2 1.2 5.2 3.7 5.2 2.7 0 4.5-1.7 4.9-4.5l.1-.8c.4-3-1.1-4.8-3.8-4.8-2.6 0-4.5 1.8-4.9 4.9zM274.6 29c-2.9 0-5.1 1.8-5.6 4.4l-1.6 9h-5.1l3.2-18.2h4.8l-.3 1.9c1.2-1.4 3-2.1 5.5-2.1l-.9 5zM294.3 42.4h-4.8l.2-1.7c-1.2 1.4-2.9 2-5.1 2-2.7 0-4.8-.9-6.2-2.7-1.4-1.8-1.9-4.2-1.5-7.1.4-2.8 1.4-5 3.2-6.6 1.7-1.7 3.9-2.5 6.5-2.5s4.6.9 5.3 2.1L294 15h5.1l-4.8 27.4zM282 33.1c-.5 3.2 1.2 5.2 3.7 5.2 2.7 0 4.5-1.7 4.9-4.5l.1-.8c.4-3-1.1-4.8-3.8-4.8-2.5 0-4.5 1.8-4.9 4.9zM317.4 33l5.8-8.8h6l-12.9 18.7-3.5-9.1-6.7 9.1-6.5-18.7h5.5l2.7 8.8 6.3-8.9 3.3 8.9zM344.3 26.3l.5-2.1h4.8l-3.1 18.2h-4.8l.2-1.7c-1.2 1.4-2.9 2-5.1 2-2.7 0-4.8-.9-6.2-2.7-1.4-1.8-1.9-4.2-1.5-7.1.4-2.8 1.4-5 3.2-6.6 1.7-1.7 3.9-2.5 6.5-2.5s4.6 1.1 5.5 2.5zm-10.1 6.8c-.5 3.2 1.2 5.2 3.7 5.2 2.7 0 4.5-1.7 4.9-4.5l.2-.8c.4-3-1.1-4.8-3.8-4.8-2.7 0-4.6 1.8-5 4.9zM363.2 29c-2.9 0-5.1 1.8-5.6 4.4l-1.6 9h-5.1l3.2-18.2h4.8l-.3 1.9c1.2-1.4 3-2.1 5.5-2.1l-.9 5zM381.8 26.4c1.4 1.7 2 3.9 1.5 6.7l-.3 1.8h-12.5c-.2 2.4 1 3.7 3.3 3.7 1.8 0 3-.7 3.6-2l5.2.4c-.6 1.8-1.7 3.2-3.3 4.3-1.6 1-3.4 1.5-5.5 1.5-2.9 0-5.1-.9-6.7-2.6-1.5-1.8-2.1-4.2-1.7-7.2.4-2.8 1.5-5 3.3-6.7 1.9-1.7 4.1-2.5 6.8-2.5 2.8 0 4.9.9 6.3 2.6zm-10.7 5.1h7.3c.3-2.4-.8-3.7-2.9-3.7-2.3.1-3.9 1.4-4.4 3.7z"/><g><path className="st1" d="M51.4 7.1L33.6 36.9 15.8 7.1h-9L33.6 52 60.4 7.1z"/><path className="st2" d="M45.6 29.5z"/><path className="st0" d="M20.2 7.1l13.4 22.4 4.1-7-4.8-8H47l4.4-7.4z"/></g></svg>